<?xml version="1.0" encoding="utf-8"?>
<!-- Generator: Adobe Illustrator 16.0.0, SVG Export Plug-In . SVG Version: 6.00 Build 0)  -->
<!DOCTYPE svg PUBLIC "-//W3C//DTD SVG 1.1//EN" "http://www.w3.org/Graphics/SVG/1.1/DTD/svg11.dtd">
<svg version="1.1" id="Layer_1" xmlns="http://www.w3.org/2000/svg" xmlns:xlink="http://www.w3.org/1999/xlink" x="0px" y="0px"
	 width="100px" height="100.001px" viewBox="0 0 100 100.001" enable-background="new 0 0 100 100.001" xml:space="preserve">
<g id="change1">
	<polygon fill="#753192" points="46.372,28.723 37.102,56.682 55.462,56.382 46.552,28.723 	"/>
	<path fill="#753192" d="M50,0C22.386,0,0,22.385,0,50c0,27.615,22.386,50.002,50,50.002c27.616,0,50-22.387,50-50.002
		C100,22.385,77.616,0,50,0z M79.69,78.151l-24.079-0.079l0.008-2.069l6.075-0.428L56.44,59.446l-20.159-0.063l-5.272,16.095
		l6.074,0.461l-0.009,2.07l-14.085-0.041l0.008-2.07l5.446-0.431L49.935,12l2.024,0.003l21.799,63.608l5.939,0.469L79.69,78.151z"/>
</g>
</svg>
